<?xml version="1.0" encoding="UTF-8" standalone="no"?>
<!-- Created with Inkscape (http://www.inkscape.org/) -->

<svg
   xmlns:dc="http://purl.org/dc/elements/1.1/"
   xmlns:cc="http://creativecommons.org/ns#"
   xmlns:rdf="http://www.w3.org/1999/02/22-rdf-syntax-ns#"
   xmlns:svg="http://www.w3.org/2000/svg"
   xmlns="http://www.w3.org/2000/svg"
   xmlns:xlink="http://www.w3.org/1999/xlink"
   xmlns:sodipodi="http://sodipodi.sourceforge.net/DTD/sodipodi-0.dtd"
   xmlns:inkscape="http://www.inkscape.org/namespaces/inkscape"
   width="64"
   height="64"
   id="svg2"
   version="1.1"
   inkscape:version="0.47 r22583"
   sodipodi:docname="globe.svg">
  <defs
     id="defs4">
    <linearGradient
       id="linearGradient3762">
      <stop
         style="stop-color:#008000;stop-opacity:1;"
         offset="0"
         id="stop3764" />
      <stop
         style="stop-color:#00ff00;stop-opacity:1;"
         offset="1"
         id="stop3766" />
    </linearGradient>
    <linearGradient
       id="linearGradient3710">
      <stop
         style="stop-color:#0000ff;stop-opacity:1;"
         offset="0"
         id="stop3712" />
      <stop
         style="stop-color:#03ecff;stop-opacity:1;"
         offset="1"
         id="stop3714" />
    </linearGradient>
    <linearGradient
       id="linearGradient3692">
      <stop
         style="stop-color:#004000;stop-opacity:1;"
         offset="0"
         id="stop3694" />
      <stop
         style="stop-color:#00ff00;stop-opacity:1;"
         offset="1"
         id="stop3696" />
    </linearGradient>
    <linearGradient
       id="linearGradient3684">
      <stop
         style="stop-color:#000000;stop-opacity:1;"
         offset="0"
         id="stop3686" />
      <stop
         style="stop-color:#000000;stop-opacity:0;"
         offset="1"
         id="stop3688" />
    </linearGradient>
    <inkscape:path-effect
       effect="spiro"
       id="path-effect3666"
       is_visible="true" />
    <inkscape:path-effect
       effect="spiro"
       id="path-effect3662"
       is_visible="true" />
    <inkscape:path-effect
       effect="spiro"
       id="path-effect3658"
       is_visible="true" />
    <inkscape:path-effect
       effect="spiro"
       id="path-effect3654"
       is_visible="true" />
    <inkscape:path-effect
       effect="spiro"
       id="path-effect3650"
       is_visible="true" />
    <inkscape:path-effect
       effect="spiro"
       id="path-effect3646"
       is_visible="true" />
    <inkscape:path-effect
       effect="spiro"
       id="path-effect3642"
       is_visible="true" />
    <inkscape:path-effect
       effect="spiro"
       id="path-effect3638"
       is_visible="true" />
    <inkscape:path-effect
       effect="spiro"
       id="path-effect3634"
       is_visible="true" />
    <inkscape:path-effect
       effect="spiro"
       id="path-effect3630"
       is_visible="true" />
    <inkscape:path-effect
       effect="spiro"
       id="path-effect3626"
       is_visible="true" />
    <inkscape:path-effect
       effect="spiro"
       id="path-effect3622"
       is_visible="true" />
    <inkscape:path-effect
       effect="spiro"
       id="path-effect3618"
       is_visible="true" />
    <inkscape:perspective
       sodipodi:type="inkscape:persp3d"
       inkscape:vp_x="0 : 526.18109 : 1"
       inkscape:vp_y="0 : 1000 : 0"
       inkscape:vp_z="744.09448 : 526.18109 : 1"
       inkscape:persp3d-origin="372.04724 : 350.78739 : 1"
       id="perspective10" />
    <linearGradient
       inkscape:collect="always"
       xlink:href="#linearGradient3692"
       id="linearGradient3700"
       x1="64.289467"
       y1="1050.9365"
       x2="63.374195"
       y2="946.11505"
       gradientUnits="userSpaceOnUse" />
    <linearGradient
       inkscape:collect="always"
       xlink:href="#linearGradient3710"
       id="linearGradient3760"
       gradientUnits="userSpaceOnUse"
       x1="63.75"
       y1="107.66975"
       x2="63.75"
       y2="-0.46814364" />
    <linearGradient
       inkscape:collect="always"
       xlink:href="#linearGradient3762"
       id="linearGradient3768"
       x1="27.759214"
       y1="74.817772"
       x2="27.246578"
       y2="25.148726"
       gradientUnits="userSpaceOnUse"
       gradientTransform="matrix(0.49295814,0,0,0.49295814,0.71121479,988.3104)" />
    <linearGradient
       inkscape:collect="always"
       xlink:href="#linearGradient3692"
       id="linearGradient3617"
       gradientUnits="userSpaceOnUse"
       x1="64.289467"
       y1="1050.9365"
       x2="63.374195"
       y2="946.11505" />
    <linearGradient
       inkscape:collect="always"
       xlink:href="#linearGradient3692"
       id="linearGradient3619"
       gradientUnits="userSpaceOnUse"
       x1="64.289467"
       y1="1050.9365"
       x2="63.374195"
       y2="946.11505" />
  </defs>
  <sodipodi:namedview
     id="base"
     pagecolor="#ffffff"
     bordercolor="#666666"
     borderopacity="1.0"
     inkscape:pageopacity="0.0"
     inkscape:pageshadow="2"
     inkscape:zoom="8.2760872"
     inkscape:cx="40.193606"
     inkscape:cy="37.062852"
     inkscape:document-units="px"
     inkscape:current-layer="layer1"
     showgrid="false" />
  <metadata
     id="metadata7">
    <rdf:RDF>
      <cc:Work
         rdf:about="">
        <dc:format>image/svg+xml</dc:format>
        <dc:type
           rdf:resource="http://purl.org/dc/dcmitype/StillImage" />
        <dc:title />
      </cc:Work>
    </rdf:RDF>
  </metadata>
  <g
     inkscape:label="Layer 1"
     inkscape:groupmode="layer"
     id="layer1"
     transform="translate(0,-988.36218)">
    <path
       sodipodi:type="arc"
       style="opacity:0.9;fill:url(#linearGradient3760);fill-opacity:1;stroke:#00001c;stroke-opacity:1"
       id="path2822"
       sodipodi:cx="63.75"
       sodipodi:cy="64.964287"
       sodipodi:rx="59.464287"
       sodipodi:ry="59.464287"
       d="m 123.21429,64.964287 a 59.464287,59.464287 0 1 1 -118.9285768,0 59.464287,59.464287 0 1 1 118.9285768,0 z"
       transform="matrix(0.49295811,0,0,0.49295811,0.71121475,988.31035)" />
    <g
       id="g3680"
       style="fill:url(#linearGradient3700);fill-opacity:1;stroke:#000000;stroke-width:0.60000002;stroke-miterlimit:4;stroke-opacity:1;stroke-dasharray:none"
       transform="matrix(0.49295811,0,0,0.49295811,0.71121475,532.63851)">
      <g
         id="g3677"
         style="fill:url(#linearGradient3619);fill-opacity:1;stroke:#000000;stroke-width:0.60000002;stroke-miterlimit:4;stroke-opacity:1;stroke-dasharray:none">
        <path
           id="path3660"
           style="fill:url(#linearGradient3617);fill-opacity:1;stroke:#000000;stroke-width:0.60000002;stroke-linecap:butt;stroke-linejoin:miter;stroke-miterlimit:4;stroke-opacity:1;stroke-dasharray:none"
           d="m 72.012343,1044.506 c -1.286415,0.1632 -2.636444,-0.273 -3.584119,-1.1581 -0.930267,-0.8689 -1.443967,-2.0975 -1.75597,-3.3316 -0.312002,-1.2341 -0.44869,-2.5077 -0.769412,-3.7395 -0.129979,-0.4992 -0.289982,-0.9908 -0.401238,-1.4945 -0.111256,-0.5037 -0.173263,-1.0248 -0.103838,-1.536 0.09283,-0.6835 0.419267,-1.3214 0.856557,-1.8548 0.43729,-0.5335 0.982528,-0.9692 1.554689,-1.3544 1.144323,-0.7705 2.426105,-1.3667 3.397131,-2.3466 0.397534,-0.4012 0.737368,-0.8641 0.966323,-1.3804 0.228954,-0.5163 0.344482,-1.0874 0.296368,-1.6501 -0.05972,-0.6985 -0.363013,-1.3487 -0.624551,-1.9991 -0.261539,-0.6504 -0.488566,-1.3481 -0.385602,-2.0415 0.09913,-0.6676 0.494343,-1.2542 0.937995,-1.7628 0.443651,-0.5085 0.947618,-0.9674 1.334849,-1.5202 0.858899,-1.226 1.056548,-2.8879 0.509175,-4.2812 -0.547372,-1.3933 -1.823342,-2.4762 -3.287095,-2.7898 l -2.777919,-0.7577 c -1.221924,-0.6605 -2.693701,-0.8445 -4.040611,-0.505 -1.516765,0.3823 -2.798512,1.3735 -3.994582,2.3815 -1.19607,1.0081 -2.386287,2.0771 -3.8341,2.6692 -1.506318,0.616 -3.173293,0.6678 -4.798224,0.7576 -1.431269,0.079 -2.872853,0.1938 -4.293149,0 -1.712415,-0.2336 -3.360983,-0.9228 -4.728242,-1.9799 -1.36726,-1.0571 -2.449585,-2.48 -3.10044,-4.081 -0.58632,-1.4423 -0.820776,-3.0003 -1.010153,-4.5457 -0.339381,-2.7694 -0.546725,-5.59768 0,-8.33372 0.305597,-1.52933 0.854834,-3.0287 1.767767,-4.29314 0.700782,-0.9706 1.602133,-1.7863 2.272844,-2.77792 0.63546,-0.9395 1.050262,-2.01723 1.716469,-2.93519 0.333104,-0.45897 0.731711,-0.87788 1.21308,-1.17771 0.481368,-0.29984 1.050621,-0.47533 1.616137,-0.43279 0.541262,0.0407 1.05007,0.27543 1.512833,0.55911 0.462763,0.28368 0.892554,0.61931 1.361243,0.89309 0.46869,0.27377 0.989756,0.48733 1.532513,0.49346 0.271378,0.003 0.544977,-0.047 0.791278,-0.16097 0.2463,-0.11398 0.46437,-0.29331 0.61051,-0.522 0.14393,-0.22523 0.214248,-0.48868 0.274727,-0.74904 0.06048,-0.26036 0.114197,-0.52546 0.23035,-0.76619 0.182357,-0.37795 0.504635,-0.66796 0.832907,-0.92937 0.328272,-0.26141 0.674966,-0.50893 0.934859,-0.8384 0.269763,-0.34199 0.431722,-0.75413 0.601136,-1.15541 0.169415,-0.40128 0.355966,-0.80704 0.661555,-1.11743 0.2633,-0.26744 0.604998,-0.45091 0.965831,-0.5541 0.360834,-0.10319 0.740758,-0.12862 1.115453,-0.10733 0.74939,0.0426 1.474669,0.26768 2.211865,0.40889 2.921831,0.55966 5.909012,-0.20656 8.853674,-0.62999 1.47233,-0.21171 2.968976,-0.33769 4.446715,-0.16778 1.477738,0.16991 2.944188,0.65047 4.124742,1.55539 0.706799,0.54177 1.295234,1.22093 1.96152,1.81182 0.666285,0.59089 1.448028,1.10757 2.331628,1.21863 0.256289,0.0322 0.515684,0.0295 0.773,0.0521 0.257316,0.0226 0.51785,0.0725 0.742229,0.20046 0.207751,0.11848 0.373665,0.2975 0.527441,0.48067 0.153776,0.18317 0.300336,0.37477 0.482712,0.52949 0.246953,0.2095 0.553944,0.3441 0.872948,0.3999 0.319003,0.0558 0.649504,0.0342 0.963089,-0.0466 0.62717,-0.16175 1.174316,-0.55325 1.630598,-1.01294 0.456282,-0.45969 0.833719,-0.99002 1.232976,-1.50002 0.399258,-0.51 0.828517,-1.00754 1.361304,-1.37584 0.673139,-0.46532 1.483883,-0.70243 2.297478,-0.7902 0.813594,-0.0878 1.635524,-0.0331 2.450344,0.0425 0.81481,0.0756 1.62975,0.17219 2.44805,0.16817 0.81831,-0.004 1.64678,-0.1121 2.40058,-0.43057 0.95767,-0.4046 1.78316,-1.17675 2.12346,-2.15911 0.17016,-0.49118 0.21667,-1.02707 0.11564,-1.53697 -0.10103,-0.5099 -0.35162,-0.99186 -0.72387,-1.35468 -0.17171,-0.16736 -0.36697,-0.30837 -0.54901,-0.46443 -0.18204,-0.15605 -0.35387,-0.33129 -0.46115,-0.54573 -0.12045,-0.24077 -0.15192,-0.5144 -0.20041,-0.77922 -0.0485,-0.26482 -0.12196,-0.53827 -0.30466,-0.73601 -0.0809,-0.0875 -0.18083,-0.15733 -0.25254,-0.25253 -0.10913,-0.14488 -0.14172,-0.3405 -0.10123,-0.51731 0.0405,-0.17682 0.14973,-0.33415 0.29118,-0.44769 0.14146,-0.11354 0.31365,-0.18507 0.49111,-0.2226 0.17746,-0.0375 0.36054,-0.0422 0.54162,-0.0316 0.36216,0.0211 0.72048,0.1022 1.08323,0.0976 0.18137,-0.002 0.36387,-0.0266 0.53425,-0.0888 0.17037,-0.0622 0.32854,-0.16395 0.44283,-0.3048 0.0968,-0.11931 0.16002,-0.26394 0.19293,-0.41402 0.0329,-0.15007 0.0363,-0.30563 0.0212,-0.45853 -0.0301,-0.30581 -0.13211,-0.59909 -0.21416,-0.89522 -0.27855,-1.00533 -0.33448,-2.07692 -0.75761,-3.03046 -0.31466,-0.7091 -0.82622,-1.3258 -1.44879,-1.78866 -0.62256,-0.46286 -1.35385,-0.77336 -2.11417,-0.92742 -1.52066,-0.30812 -3.12491,0.0132 -4.51826,0.69578 -1.382855,0.67742 -2.56899,1.68753 -3.793211,2.62159 -1.22422,0.93406 -2.537961,1.81795 -4.035471,2.17663 -0.755829,0.18103 -1.547789,0.22518 -2.272844,0.50508 -1.136001,0.43855 -1.98109,1.40252 -3.030457,2.0203 -1.208196,0.71128 -2.640529,0.93643 -4.04061,1.01016 -4.719081,0.24853 -9.486468,-1.06263 -14.142136,-0.25254 -1.961319,0.34127 -3.915893,1.09768 -5.303301,2.52538 -0.623994,0.64212 -1.118552,1.4037 -1.767767,2.02031 -0.70183,0.66658 -1.577934,1.14911 -2.517839,1.38034 -0.939906,0.23124 -1.941436,0.20997 -2.869043,-0.0665 -0.927607,-0.27647 -1.778571,-0.80805 -2.429632,-1.52429 -0.651061,-0.71625 -1.099753,-1.61551 -1.274859,-2.56747 -0.228929,-1.24457 0.0048,-2.52264 0,-3.78808 -0.0054,-1.43581 -0.317092,-2.89277 0,-4.29314 0.247239,-1.09188 0.883366,-2.09151 1.767767,-2.77792 0.304596,-0.66285 0.852383,-1.21063 1.515229,-1.51523 0.768728,-0.35325 1.658937,-0.37538 2.486823,-0.20121 0.827886,0.17416 1.604656,0.53327 2.35644,0.92128 0.751784,0.38801 1.489381,0.80886 2.276113,1.11996 0.786731,0.3111 1.634668,0.51081 2.477073,0.43281 0.840335,-0.0778 1.651976,-0.43854 2.272843,-1.01015 l 3.282996,-3.78807 1.010153,-4.04061 c -0.442867,-1.2465 -0.248913,-2.70116 0.505076,-3.78808 0.765039,-1.10285 2.026519,-1.77974 3.326502,-2.11381 1.299982,-0.33408 2.655787,-0.36229 3.997104,-0.41157 0.420866,-0.0155 0.842849,-0.0332 1.262691,0 1.273021,0.10055 2.45699,0.65934 3.630848,1.16208 1.173858,0.50275 2.420305,0.96573 3.692758,0.85823 1.291942,-0.10915 2.458338,-0.79365 3.535534,-1.51523 2.353867,-1.57678 4.49155,-3.46943 5.702651,-6.03071 0.83072,-1.75684 0.878815,-3.58211 0.595593,-5.50284 0.789621,0.53542 2.588923,1.4466 4.374372,2.61707 1.785448,1.17047 3.557044,2.60022 4.291254,3.20614 1.46842,1.21185 2.87768,2.49282 4.22279,3.83794 1.34512,1.34511 2.62609,2.75437 3.83794,4.22279 1.21184,1.46842 2.35457,2.996 3.42318,4.57776 1.06862,1.58176 2.06313,3.2177 2.97855,4.90284 0.91542,1.68514 1.75176,3.41947 2.50402,5.19803 0.75227,1.77855 1.42046,3.60132 1.9996,5.46332 0.57914,1.862 -0.60836,-1.03896 -1.37211,-1.49729 -0.76375,-0.45833 -1.68336,-0.65133 -2.56692,-0.53873 -0.88357,0.11261 -1.72538,0.53008 -2.34976,1.16532 -0.62438,0.63523 -1.02729,1.4841 -1.12466,2.36948 -0.0786,0.71495 0.0362,1.43531 0.14463,2.14635 0.10844,0.71104 0.2109,1.43495 0.10791,2.1468 -0.1415,0.978 -0.65733,1.85487 -1.01015,2.77792 -0.51126,1.33755 -0.68411,2.78895 -1.2337,4.11122 -0.27479,0.66113 -0.64775,1.29082 -1.16344,1.78748 -0.51568,0.49667 -1.1831,0.85374 -1.89601,0.91983 -0.71285,0.0661 -1.42783,-0.15912 -2.05444,-0.50534 -0.62662,-0.34623 -1.17893,-0.80985 -1.73363,-1.26243 -1.20975,-0.98705 -2.51024,-1.96345 -4.04061,-2.27284 -0.58539,-0.11835 -1.18576,-0.13437 -1.78155,-0.17598 -0.59578,-0.0416 -1.19794,-0.11113 -1.75398,-0.3291 -0.29032,-0.11381 -0.56609,-0.26738 -0.86707,-0.34891 -0.15049,-0.0408 -0.30718,-0.063 -0.46265,-0.0513 -0.15546,0.0118 -0.30993,0.0588 -0.43805,0.14763 -0.14164,0.0982 -0.24681,0.2455 -0.30259,0.40858 -0.0558,0.16309 -0.0632,0.34113 -0.0305,0.51034 0.0656,0.33843 0.28664,0.63097 0.55472,0.84767 0.53616,0.43342 1.24926,0.59477 1.79862,1.01133 0.33718,0.25567 0.59895,0.59752 0.83016,0.95191 0.23122,0.35439 0.4365,0.72596 0.68507,1.0684 0.77048,1.06147 1.90774,1.78344 2.9216,2.61557 0.50693,0.41607 0.99066,0.86781 1.37687,1.39784 0.38621,0.53003 0.67284,1.14399 0.75229,1.79497 0.10267,0.84126 -0.14886,1.70158 -0.5945,2.42246 -0.44563,0.72088 -1.07551,1.31267 -1.75822,1.81482 -1.36543,1.00431 -2.96712,1.68481 -4.21327,2.83378 -1.73311,1.59801 -2.58192,3.90501 -3.535531,6.06091 -0.427345,0.9661 -0.889319,1.9256 -1.143618,2.9509 -0.2543,1.0254 -0.286954,2.1408 0.133466,3.11 0.345619,0.7967 0.976404,1.453 1.26269,2.2729 0.308515,0.8836 0.182984,1.8548 0.0091,2.7744 -0.173868,0.9196 -0.393521,1.8548 -0.261654,2.7814 0.161875,1.1374 0.831617,2.1265 1.433637,3.105 0.30101,0.4892 0.59045,0.9889 0.79835,1.5244 0.2079,0.5355 0.33267,1.111 0.29339,1.6841 -0.0371,0.5412 -0.22146,1.0694 -0.51499,1.5256 -0.29353,0.4561 -0.69456,0.8404 -1.15392,1.1288 -0.91872,0.5769 -2.052335,0.759 -3.12931,0.6286 -0.776037,-0.094 -1.527014,-0.3411 -2.302394,-0.4404 -0.38769,-0.05 -0.782709,-0.062 -1.168447,0 -0.385738,0.063 -0.76285,0.2038 -1.074845,0.4392 -0.305711,0.2307 -0.541452,0.5469 -0.704086,0.8936 -0.162634,0.3467 -0.254321,0.7237 -0.300863,1.1039 -0.09308,0.7603 -0.0087,1.5296 -0.0052,2.2956 0.01496,3.2756 -1.546008,6.5232 -4.113307,8.5577 -2.567299,2.0345 -6.085663,2.812 -9.271214,2.0489"
           sodipodi:nodetypes="csssssssssssssssccsssssssssssssssssssssssssssssssssssssssssssssssssssssssssssssssssssssssssssssssssscssssscccsssssssscsssssssccssssssssssssssssssssssssssssssssssssssssssssssssc" />
      </g>
    </g>
    <path
       style="fill:url(#linearGradient3768);fill-opacity:1;stroke:#000000;stroke-width:0.29577488;stroke-linecap:butt;stroke-linejoin:miter;stroke-miterlimit:4;stroke-opacity:1;stroke-dasharray:none"
       d="m 3.7203513,1013.3147 c 0,0 1.4855263,-0.8714 2.2282894,-1.3071 0.7427632,-0.4357 1.405607,-1.5615 2.2282895,-1.3071 0.5354378,0.1655 0.4778253,1.0139 0.7167379,1.5209 0.2389128,0.5071 0.7167376,1.521 0.7167376,1.521 0.3707593,-0.1062 0.9626353,-0.3204 1.2180113,-0.6094 0.255376,-0.289 0.42609,-0.6519 0.485869,-1.0329 0.09404,-0.5994 -0.08185,-1.2035 -0.162623,-1.8049 -0.04039,-0.3007 -0.05684,-0.6077 -0.004,-0.9064 0.05291,-0.2988 0.179432,-0.5904 0.394179,-0.8046 0.186311,-0.186 0.430597,-0.306 0.684073,-0.3769 0.253476,-0.071 0.517468,-0.095 0.780193,-0.1115 0.262725,-0.016 0.526514,-0.024 0.786827,-0.063 0.260314,-0.038 0.519206,-0.1103 0.745531,-0.2447 0.322572,-0.1915 0.559838,-0.4988 0.754829,-0.8193 0.194989,-0.3205 0.35626,-0.6618 0.571851,-0.9688 0.358039,-0.5099 0.851344,-0.9057 1.320042,-1.3161 0.468699,-0.4105 0.929537,-0.8568 1.190059,-1.4228 0.174942,-0.38 0.251631,-0.799 0.279147,-1.2164 0.02752,-0.4175 0.0074,-0.8363 -0.0026,-1.2546 -0.02266,-0.9478 0.0058,-1.90399 -0.17252,-2.83517 -0.178343,-0.93118 -0.590485,-1.85585 -1.335399,-2.44236 -0.19062,-0.15009 -0.664406,0.25226 -0.886538,0.1547 -8.9721338,6.23583 -10.9311548,12.41083 -12.5370782,17.64733"
       id="path3664"
       sodipodi:nodetypes="caaacssssssssssssssssscc" />
  </g>
</svg>
