<?xml version="1.0" encoding="UTF-8" standalone="no"?>
<!-- Created with Inkscape (http://www.inkscape.org/) -->

<svg
   xmlns:dc="http://purl.org/dc/elements/1.1/"
   xmlns:cc="http://creativecommons.org/ns#"
   xmlns:rdf="http://www.w3.org/1999/02/22-rdf-syntax-ns#"
   xmlns:svg="http://www.w3.org/2000/svg"
   xmlns="http://www.w3.org/2000/svg"
   xmlns:xlink="http://www.w3.org/1999/xlink"
   xmlns:sodipodi="http://sodipodi.sourceforge.net/DTD/sodipodi-0.dtd"
   xmlns:inkscape="http://www.inkscape.org/namespaces/inkscape"
   width="64px"
   height="64px"
   id="svg2816"
   version="1.1"
   inkscape:version="0.47 r22583"
   sodipodi:docname="move.svg"
   inkscape:export-filename="C:\Users\Unlogic\Downloads\move.png"
   inkscape:export-xdpi="22.5"
   inkscape:export-ydpi="22.5">
  <defs
     id="defs2818">
    <linearGradient
       id="linearGradient2815">
      <stop
         style="stop-color:#37832d;stop-opacity:1;"
         offset="0"
         id="stop2817" />
      <stop
         style="stop-color:#99cb13;stop-opacity:1;"
         offset="1"
         id="stop2819" />
    </linearGradient>
    <inkscape:perspective
       sodipodi:type="inkscape:persp3d"
       inkscape:vp_x="0 : 32 : 1"
       inkscape:vp_y="0 : 1000 : 0"
       inkscape:vp_z="64 : 32 : 1"
       inkscape:persp3d-origin="32 : 21.333333 : 1"
       id="perspective2824" />
    <filter
       inkscape:collect="always"
       id="filter3626">
      <feGaussianBlur
         inkscape:collect="always"
         stdDeviation="0.98193082"
         id="feGaussianBlur3628" />
    </filter>
    <filter
       id="filter3626-7"
       inkscape:collect="always">
      <feGaussianBlur
         id="feGaussianBlur3628-1"
         stdDeviation="0.98193082"
         inkscape:collect="always" />
    </filter>
    <inkscape:perspective
       id="perspective2824-5"
       inkscape:persp3d-origin="32 : 21.333333 : 1"
       inkscape:vp_z="64 : 32 : 1"
       inkscape:vp_y="0 : 1000 : 0"
       inkscape:vp_x="0 : 32 : 1"
       sodipodi:type="inkscape:persp3d" />
    <linearGradient
       id="linearGradient2815-2">
      <stop
         id="stop2817-4"
         offset="0"
         style="stop-color:#37832d;stop-opacity:1;" />
      <stop
         id="stop2819-5"
         offset="1"
         style="stop-color:#99cb13;stop-opacity:1;" />
    </linearGradient>
    <linearGradient
       inkscape:collect="always"
       xlink:href="#linearGradient2815"
       id="linearGradient2862"
       gradientUnits="userSpaceOnUse"
       gradientTransform="matrix(0.72013822,0,0,0.72013822,28.129365,-3.2067446)"
       x1="43.39584"
       y1="38.375"
       x2="18.875"
       y2="18.9375" />
    <linearGradient
       inkscape:collect="always"
       xlink:href="#linearGradient2815-2"
       id="linearGradient2864"
       gradientUnits="userSpaceOnUse"
       gradientTransform="matrix(-1.2727609,0,0,-1.2727609,70.626351,71.125352)"
       x1="16.986071"
       y1="18.654221"
       x2="42.365345"
       y2="42.404804" />
    <linearGradient
       inkscape:collect="always"
       xlink:href="#linearGradient2815"
       id="linearGradient2835"
       gradientUnits="userSpaceOnUse"
       gradientTransform="matrix(0.86500526,0,0,0.86500526,13.60844,-5.6673564)"
       x1="43.39584"
       y1="38.375"
       x2="18.875"
       y2="18.9375" />
    <linearGradient
       inkscape:collect="always"
       xlink:href="#linearGradient2815-2"
       id="linearGradient2842"
       gradientUnits="userSpaceOnUse"
       gradientTransform="matrix(-1.2727609,0,0,-1.2727609,70.626351,71.125352)"
       x1="16.986071"
       y1="18.654221"
       x2="42.365345"
       y2="42.404804" />
    <linearGradient
       inkscape:collect="always"
       xlink:href="#linearGradient2815"
       id="linearGradient2844"
       gradientUnits="userSpaceOnUse"
       gradientTransform="matrix(0.86500526,0,0,0.86500526,13.60844,-5.6673564)"
       x1="43.39584"
       y1="38.375"
       x2="18.875"
       y2="18.9375" />
  </defs>
  <sodipodi:namedview
     id="base"
     pagecolor="#ffffff"
     bordercolor="#666666"
     borderopacity="1.0"
     inkscape:pageopacity="0.0"
     inkscape:pageshadow="2"
     inkscape:zoom="7.9999996"
     inkscape:cx="35.075859"
     inkscape:cy="30.298239"
     inkscape:current-layer="layer1"
     showgrid="true"
     inkscape:document-units="px"
     inkscape:grid-bbox="true"
     inkscape:window-width="1920"
     inkscape:window-height="1138"
     inkscape:window-x="1272"
     inkscape:window-y="32"
     inkscape:window-maximized="1" />
  <metadata
     id="metadata2821">
    <rdf:RDF>
      <cc:Work
         rdf:about="">
        <dc:format>image/svg+xml</dc:format>
        <dc:type
           rdf:resource="http://purl.org/dc/dcmitype/StillImage" />
        <dc:title></dc:title>
      </cc:Work>
    </rdf:RDF>
  </metadata>
  <g
     id="layer1"
     inkscape:label="Layer 1"
     inkscape:groupmode="layer">
    <g
       id="g2838"
       transform="translate(2,0)">
      <path
         transform="matrix(0.67962903,0,0,0.67962903,17.280672,-0.67343133)"
         style="opacity:0.8;fill:#000000;fill-opacity:1;stroke:none;filter:url(#filter3626)"
         d="M 34.090099,4.546795 C 33.121727,4.532073 32.161761,5.0632768 30.987745,6.0979724 L 12.930448,26.064412 c -1.123275,1.242037 1.348172,3.022808 3.022807,3.022808 l 9.943446,0 c -0.03517,0.185079 -0.07955,0.361214 -0.07955,0.556833 l 0,28.796216 c 0,1.674635 1.348172,3.022807 3.022807,3.022807 l 9.545708,0 c 1.674635,0 3.022807,-1.348172 3.022807,-3.022807 l 0,-28.796216 c 0,-0.195619 -0.04438,-0.371754 -0.07955,-0.556833 l 9.307065,0 c 1.674635,0 4.095902,-1.737168 3.022807,-3.022808 L 37.192454,6.3366151 C 36.03525,5.1221653 35.058472,4.5615172 34.090099,4.546795 z"
         id="path3622" />
      <path
         id="rect2826"
         d="M 39.9911,1.658157 C 39.332966,1.6481513 38.680546,2.0091731 37.882651,2.7123823 L 25.610387,16.282152 c -0.763411,0.844125 0.916257,2.054389 2.054388,2.054389 l 6.757854,0 c -0.0239,0.125785 -0.05405,0.24549 -0.05405,0.378439 l 0,19.570744 c 0,1.13813 0.916255,2.054388 2.054387,2.054388 l 6.48754,0 c 1.138131,0 2.054387,-0.916258 2.054387,-2.054388 l 0,-19.570744 c 0,-0.132949 -0.03016,-0.252654 -0.05406,-0.378439 l 6.325351,0 c 1.138131,0 2.783693,-1.180631 2.054387,-2.054389 L 42.099552,2.8745707 C 41.313082,2.0491954 40.649235,1.6681626 39.9911,1.658157 z"
         style="fill:url(#linearGradient2844);fill-opacity:1;stroke:none" />
    </g>
    <g
       inkscape:label="Layer 1"
       id="layer1-2"
       transform="matrix(0.67962903,0,0,0.67962903,0.1110266,20.136956)">
      <path
         transform="matrix(-1,0,0,-1,66.571421,66.009573)"
         style="opacity:0.8;fill:#000000;fill-opacity:1;stroke:none;filter:url(#filter3626-7)"
         d="M 34.090099,4.546795 C 33.121727,4.532073 32.161761,5.0632768 30.987745,6.0979724 L 12.930448,26.064412 c -1.123275,1.242037 1.348172,3.022808 3.022807,3.022808 l 9.943446,0 c -0.03517,0.185079 -0.07955,0.361214 -0.07955,0.556833 l 0,28.796216 c 0,1.674635 1.348172,3.022807 3.022807,3.022807 l 9.545708,0 c 1.674635,0 3.022807,-1.348172 3.022807,-3.022807 l 0,-28.796216 c 0,-0.195619 -0.04438,-0.371754 -0.07955,-0.556833 l 9.307065,0 c 1.674635,0 4.095902,-1.737168 3.022807,-3.022808 L 37.192454,6.3366151 C 36.03525,5.1221653 35.058472,4.5615172 34.090099,4.546795 z"
         id="path3622-7" />
      <path
         id="rect2826-6"
         d="m 31.807143,60.346658 c 0.968372,0.01472 1.928338,-0.516482 3.102354,-1.551178 L 52.966794,38.829044 c 1.123275,-1.242037 -1.348172,-3.022808 -3.022807,-3.022808 l -9.943446,0 c 0.03517,-0.185079 0.07955,-0.361214 0.07955,-0.556833 l 0,-28.7962161 c 0,-1.674635 -1.348172,-3.022807 -3.022807,-3.022807 l -9.545708,0 c -1.674635,0 -3.022807,1.348172 -3.022807,3.022807 l 0,28.7962161 c 0,0.195619 0.04438,0.371754 0.07955,0.556833 l -9.307065,0 c -1.674635,0 -4.095902,1.737168 -3.022807,3.022808 l 16.466341,19.727794 c 1.157204,1.21445 2.133982,1.775098 3.102355,1.78982 z"
         style="fill:url(#linearGradient2842);fill-opacity:1;stroke:none" />
    </g>
  </g>
</svg>
