<?xml version="1.0" encoding="UTF-8" standalone="no"?>
<!-- Created with Inkscape (http://www.inkscape.org/) -->

<svg
   xmlns:dc="http://purl.org/dc/elements/1.1/"
   xmlns:cc="http://creativecommons.org/ns#"
   xmlns:rdf="http://www.w3.org/1999/02/22-rdf-syntax-ns#"
   xmlns:svg="http://www.w3.org/2000/svg"
   xmlns="http://www.w3.org/2000/svg"
   xmlns:xlink="http://www.w3.org/1999/xlink"
   xmlns:sodipodi="http://sodipodi.sourceforge.net/DTD/sodipodi-0.dtd"
   xmlns:inkscape="http://www.inkscape.org/namespaces/inkscape"
   width="64px"
   height="64px"
   id="svg2816"
   version="1.1"
   inkscape:version="0.47 r22583"
   sodipodi:docname="add.svg"
   inkscape:export-filename="C:\Unlogic\Download\web icons\add.png"
   inkscape:export-xdpi="22.5"
   inkscape:export-ydpi="22.5">
  <defs
     id="defs2818">
    <linearGradient
       id="linearGradient5258">
      <stop
         style="stop-color:#37832d;stop-opacity:1;"
         offset="0"
         id="stop5260" />
      <stop
         style="stop-color:#99cb13;stop-opacity:1;"
         offset="1"
         id="stop5262" />
    </linearGradient>
    <linearGradient
       id="linearGradient5117">
      <stop
         style="stop-color:#37832d;stop-opacity:1;"
         offset="0"
         id="stop5119" />
      <stop
         id="stop5163"
         offset="1"
         style="stop-color:#99cb13;stop-opacity:1;" />
    </linearGradient>
    <inkscape:perspective
       sodipodi:type="inkscape:persp3d"
       inkscape:vp_x="0 : 32 : 1"
       inkscape:vp_y="0 : 1000 : 0"
       inkscape:vp_z="64 : 32 : 1"
       inkscape:persp3d-origin="32 : 21.333333 : 1"
       id="perspective2824" />
    <linearGradient
       inkscape:collect="always"
       xlink:href="#linearGradient5117"
       id="linearGradient5123"
       x1="51.465084"
       y1="52.163029"
       x2="11.91049"
       y2="11.006455"
       gradientUnits="userSpaceOnUse"
       gradientTransform="matrix(0.92267572,0,0,0.93306256,2.0895108,2.1340487)" />
    <inkscape:perspective
       id="perspective5173"
       inkscape:persp3d-origin="0.5 : 0.33333333 : 1"
       inkscape:vp_z="1 : 0.5 : 1"
       inkscape:vp_y="0 : 1000 : 0"
       inkscape:vp_x="0 : 0.5 : 1"
       sodipodi:type="inkscape:persp3d" />
    <linearGradient
       inkscape:collect="always"
       xlink:href="#linearGradient5117-1"
       id="linearGradient5123-8"
       x1="51.465084"
       y1="52.163029"
       x2="11.91049"
       y2="11.006455"
       gradientUnits="userSpaceOnUse" />
    <linearGradient
       id="linearGradient5117-1">
      <stop
         style="stop-color:#37832d;stop-opacity:1;"
         offset="0"
         id="stop5119-2" />
      <stop
         id="stop5163-1"
         offset="1"
         style="stop-color:#99cb13;stop-opacity:1;" />
    </linearGradient>
    <linearGradient
       inkscape:collect="always"
       xlink:href="#linearGradient5258"
       id="linearGradient5264"
       x1="55.106838"
       y1="55.162109"
       x2="10.605467"
       y2="11.076642"
       gradientUnits="userSpaceOnUse"
       gradientTransform="matrix(0.5804496,0,0,0.5804496,26.922739,0.01232162)" />
    <inkscape:perspective
       id="perspective5274"
       inkscape:persp3d-origin="0.5 : 0.33333333 : 1"
       inkscape:vp_z="1 : 0.5 : 1"
       inkscape:vp_y="0 : 1000 : 0"
       inkscape:vp_x="0 : 0.5 : 1"
       sodipodi:type="inkscape:persp3d" />
    <linearGradient
       inkscape:collect="always"
       xlink:href="#linearGradient5258-2"
       id="linearGradient5264-8"
       x1="55.106838"
       y1="55.162109"
       x2="10.605467"
       y2="11.076642"
       gradientUnits="userSpaceOnUse"
       gradientTransform="translate(0,-1.5840992)" />
    <linearGradient
       id="linearGradient5258-2">
      <stop
         style="stop-color:#37832d;stop-opacity:1;"
         offset="0"
         id="stop5260-4" />
      <stop
         style="stop-color:#99cb13;stop-opacity:1;"
         offset="1"
         id="stop5262-5" />
    </linearGradient>
    <filter
       inkscape:collect="always"
       id="filter5336">
      <feGaussianBlur
         inkscape:collect="always"
         stdDeviation="1.1125"
         id="feGaussianBlur5338" />
    </filter>
  </defs>
  <sodipodi:namedview
     id="base"
     pagecolor="#ffffff"
     bordercolor="#666666"
     borderopacity="1.0"
     inkscape:pageopacity="0.0"
     inkscape:pageshadow="2"
     inkscape:zoom="9.6176814"
     inkscape:cx="27.62976"
     inkscape:cy="34.94997"
     inkscape:current-layer="layer1"
     showgrid="true"
     inkscape:document-units="px"
     inkscape:grid-bbox="true"
     inkscape:window-width="937"
     inkscape:window-height="954"
     inkscape:window-x="141"
     inkscape:window-y="32"
     inkscape:window-maximized="0" />
  <metadata
     id="metadata2821">
    <rdf:RDF>
      <cc:Work
         rdf:about="">
        <dc:format>image/svg+xml</dc:format>
        <dc:type
           rdf:resource="http://purl.org/dc/dcmitype/StillImage" />
        <dc:title></dc:title>
      </cc:Work>
    </rdf:RDF>
  </metadata>
  <g
     id="layer1"
     inkscape:label="Layer 1"
     inkscape:groupmode="layer">
    <path
       style="opacity:0.79612241;fill:#00001a;fill-opacity:1;filter:url(#filter5336)"
       d="m 27.844204,4.8909759 c -1.715096,0 -3.09375,1.378654 -3.09375,3.09375 l 0,15.7812501 -15.781251,0 c -1.715096,0 -3.09375,1.378654 -3.09375,3.09375 l 0,11.6875 c 0,1.715096 1.378654,3.125 3.09375,3.125 l 15.781251,0 0,15.75 c 0,1.715096 1.378654,3.09375 3.09375,3.09375 l 11.6875,0 c 1.715096,0 3.09375,-1.378654 3.09375,-3.09375 l 0,-15.75 15.78125,0 c 1.715096,0 3.09375,-1.409904 3.09375,-3.125 l 0,-11.6875 c 0,-1.715096 -1.378654,-3.09375 -3.09375,-3.09375 l -15.78125,0 0,-15.7812501 c 0,-1.715096 -1.378654,-3.09375 -3.09375,-3.09375 l -11.6875,0 z"
       id="rect5231-2"
       transform="matrix(0.5804496,0,0,0.5804496,26.922739,0.93181137)" />
    <path
       style="fill:url(#linearGradient5264);fill-opacity:1"
       d="m 42.032568,2.5880667 c -0.995527,0 -1.795766,0.800239 -1.795766,1.795766 l 0,9.1602203 -9.16022,0 c -0.995527,0 -1.795766,0.800239 -1.795766,1.795765 l 0,6.784005 c 0,0.995527 0.800239,1.813905 1.795766,1.813905 l 9.16022,0 0,9.142081 c 0,0.995527 0.800239,1.795766 1.795766,1.795766 l 6.784005,0 c 0.995527,0 1.795766,-0.800239 1.795766,-1.795766 l 0,-9.142081 9.16022,0 c 0.995527,0 1.795766,-0.818378 1.795766,-1.813905 l 0,-6.784005 c 0,-0.995526 -0.800239,-1.795765 -1.795766,-1.795765 l -9.16022,0 0,-9.1602203 c 0,-0.995527 -0.800239,-1.795766 -1.795766,-1.795766 l -6.784005,0 z"
       id="rect5231" />
  </g>
</svg>
