<?xml version="1.0" encoding="UTF-8" standalone="no"?>
<!-- Created with Inkscape (http://www.inkscape.org/) -->

<svg
   xmlns:dc="http://purl.org/dc/elements/1.1/"
   xmlns:cc="http://creativecommons.org/ns#"
   xmlns:rdf="http://www.w3.org/1999/02/22-rdf-syntax-ns#"
   xmlns:svg="http://www.w3.org/2000/svg"
   xmlns="http://www.w3.org/2000/svg"
   xmlns:xlink="http://www.w3.org/1999/xlink"
   xmlns:sodipodi="http://sodipodi.sourceforge.net/DTD/sodipodi-0.dtd"
   xmlns:inkscape="http://www.inkscape.org/namespaces/inkscape"
   width="64px"
   height="64px"
   id="svg2816"
   version="1.1"
   inkscape:version="0.47 r22583"
   sodipodi:docname="arrow_up.svg">
  <defs
     id="defs2818">
    <linearGradient
       id="linearGradient2815">
      <stop
         style="stop-color:#37832d;stop-opacity:1;"
         offset="0"
         id="stop2817" />
      <stop
         style="stop-color:#99cb13;stop-opacity:1;"
         offset="1"
         id="stop2819" />
    </linearGradient>
    <inkscape:perspective
       sodipodi:type="inkscape:persp3d"
       inkscape:vp_x="0 : 32 : 1"
       inkscape:vp_y="0 : 1000 : 0"
       inkscape:vp_z="64 : 32 : 1"
       inkscape:persp3d-origin="32 : 21.333333 : 1"
       id="perspective2824" />
    <linearGradient
       inkscape:collect="always"
       xlink:href="#linearGradient2815"
       id="linearGradient2821"
       x1="43.39584"
       y1="38.375"
       x2="18.875"
       y2="18.9375"
       gradientUnits="userSpaceOnUse"
       gradientTransform="matrix(1.2727609,0,0,1.2727609,-5.4032892,-7.3480162)" />
    <filter
       inkscape:collect="always"
       id="filter3626">
      <feGaussianBlur
         inkscape:collect="always"
         stdDeviation="0.98193082"
         id="feGaussianBlur3628" />
    </filter>
  </defs>
  <sodipodi:namedview
     id="base"
     pagecolor="#ffffff"
     bordercolor="#666666"
     borderopacity="1.0"
     inkscape:pageopacity="0.0"
     inkscape:pageshadow="2"
     inkscape:zoom="11.313708"
     inkscape:cx="22.25"
     inkscape:cy="31.954545"
     inkscape:current-layer="layer1"
     showgrid="true"
     inkscape:document-units="px"
     inkscape:grid-bbox="true"
     inkscape:window-width="1920"
     inkscape:window-height="1138"
     inkscape:window-x="1272"
     inkscape:window-y="32"
     inkscape:window-maximized="1" />
  <metadata
     id="metadata2821">
    <rdf:RDF>
      <cc:Work
         rdf:about="">
        <dc:format>image/svg+xml</dc:format>
        <dc:type
           rdf:resource="http://purl.org/dc/dcmitype/StillImage" />
        <dc:title />
      </cc:Work>
    </rdf:RDF>
  </metadata>
  <g
     id="layer1"
     inkscape:label="Layer 1"
     inkscape:groupmode="layer">
    <path
       id="path3622"
       d="M 34.090099,4.546795 C 33.121727,4.532073 32.161761,5.0632768 30.987745,6.0979724 L 12.930448,26.064412 c -1.123275,1.242037 1.348172,3.022808 3.022807,3.022808 l 9.943446,0 c -0.03517,0.185079 -0.07955,0.361214 -0.07955,0.556833 l 0,28.796216 c 0,1.674635 1.348172,3.022807 3.022807,3.022807 l 9.545708,0 c 1.674635,0 3.022807,-1.348172 3.022807,-3.022807 l 0,-28.796216 c 0,-0.195619 -0.04438,-0.371754 -0.07955,-0.556833 l 9.307065,0 c 1.674635,0 4.095902,-1.737168 3.022807,-3.022808 L 37.192454,6.3366151 C 36.03525,5.1221653 35.058472,4.5615172 34.090099,4.546795 z"
       style="opacity:0.8;fill:#000000;fill-opacity:1;stroke:none;filter:url(#filter3626)" />
    <path
       style="fill:url(#linearGradient2821);fill-opacity:1;stroke:none"
       d="M 33.415919,3.430678 C 32.447547,3.415956 31.487581,3.9471598 30.313565,4.9818554 L 12.256268,24.948292 c -1.123275,1.242037 1.348172,3.022808 3.022807,3.022808 l 9.943446,0 c -0.03517,0.185079 -0.07955,0.361214 -0.07955,0.556833 l 0,28.796216 c 0,1.674635 1.348172,3.022807 3.022807,3.022807 l 9.545708,0 c 1.674635,0 3.022807,-1.348172 3.022807,-3.022807 l 0,-28.796216 c 0,-0.195619 -0.04438,-0.371754 -0.07955,-0.556833 l 9.307065,0 c 1.674635,0 4.095902,-1.737168 3.022807,-3.022808 L 36.518274,5.2204981 C 35.36107,4.0060483 34.384292,3.4454002 33.415919,3.430678 z"
       id="rect2826" />
  </g>
</svg>
